<?xml version="1.0" encoding="UTF-8" standalone="no"?>
<svg
   xmlns:dc="http://purl.org/dc/elements/1.1/"
   xmlns:cc="http://creativecommons.org/ns#"
   xmlns:rdf="http://www.w3.org/1999/02/22-rdf-syntax-ns#"
   xmlns:svg="http://www.w3.org/2000/svg"
   xmlns="http://www.w3.org/2000/svg"
   version="1.1"
   id="svg11502"
   viewBox="0 0 500.00001 124.96937"
   height="124.96937"
   width="500">
  <defs
     id="defs11504" />
  <metadata
     id="metadata11507">
    <rdf:RDF>
      <cc:Work
         rdf:about="">
        <dc:format>image/svg+xml</dc:format>
        <dc:type
           rdf:resource="http://purl.org/dc/dcmitype/StillImage" />
        <dc:title></dc:title>
      </cc:Work>
    </rdf:RDF>
  </metadata>
  <g
     transform="translate(-252.01994,-593.57366)"
     id="layer1">
    <g
       style="fill:#ff0000"
       transform="matrix(-7.0541581,0,0,7.0541581,596.58283,594.58075)"
       id="g9098">
      <path
         id="path9100"
         style="fill:#cc0000;fill-opacity:1;fill-rule:nonzero;stroke:none"
         d="m 0,0 c 0,0 24.295,0.001 25.681,-0.001 2.631,-0.003 4.372,1.384 4.617,3.456 0.09,0.763 0.177,1.436 0.177,1.436 l -34.217,0 c 0,0 -0.065,-0.505 -0.114,-0.909 C -4.114,1.894 -3.226,0 0,0" />
    </g>
    <g
       style="fill:#ff0000"
       transform="matrix(-7.0541581,0,0,7.0541581,621.38102,642.23294)"
       id="g9102">
      <path
         id="path9104"
         style="fill:#cc0000;fill-opacity:1;fill-rule:nonzero;stroke:none"
         d="m 0,0 c 0,0 0.076,0.69 0.179,1.443 0.206,1.491 1.317,2.603 3.383,2.603 l 7.285,0 0.818,6.628 5.8,0.001 L 16.154,0 0,0" />
    </g>
    <g
       style="fill:#ff0000"
       transform="matrix(-7.0541581,0,0,7.0541581,377.56748,594.58075)"
       id="g9106">
      <path
         id="path9108"
         style="fill:#cc0000;fill-opacity:1;fill-rule:nonzero;stroke:none"
         d="m 0,0 0.598,4.891 15.518,0 L 15.515,0 0,0 Z" />
    </g>
    <g
       style="fill:#ff0000"
       transform="matrix(-7.0541581,0,0,7.0541581,262.28205,642.23509)"
       id="g9110">
      <path
         id="path9112"
         style="fill:#cc0000;fill-opacity:1;fill-rule:nonzero;stroke:none"
         d="m 0,0 -15.514,0 0.497,4.046 9.713,0 0.245,1.997 -9.715,0 0.571,4.631 15.516,0 L 0,0 Z" />
    </g>
    <g
       style="fill:#ff0000"
       transform="matrix(-7.0541581,0,0,7.0541581,635.54791,594.58075)"
       id="g9114">
      <path
         id="path9116"
         style="fill:#cc0000;fill-opacity:1;fill-rule:nonzero;stroke:none"
         d="m 0,0 -12.656,0 c -2,0 -4.071,0.928 -3.661,4.139 0.073,0.575 0.094,0.752 0.094,0.752 l 16.822,0 L 0,0" />
    </g>
    <g
       style="fill:#ff0000"
       transform="matrix(-7.0541581,0,0,7.0541581,629.68732,642.22453)"
       id="g9118">
      <path
         id="path9120"
         style="fill:#cc0000;fill-opacity:1;fill-rule:nonzero;stroke:none"
         d="M 0,0 -5.805,0.002 -4.493,10.673 1.31,10.676 0,0 Z" />
    </g>
    <g
       style="fill:#ff0000"
       transform="matrix(-7.0541581,0,0,7.0541581,707.46082,642.22453)"
       id="g9122">
      <path
         id="path9124"
         style="fill:#cc0000;fill-opacity:1;fill-rule:nonzero;stroke:none"
         d="M 0,0 -5.803,0.002 -4.491,10.673 1.312,10.676 0,0 Z" />
    </g>
    <g
       style="fill:#ff0000"
       transform="matrix(-7.0541581,0,0,7.0541581,469.91487,642.25557)"
       id="g9126">
      <path
         id="path9128"
         style="fill:#cc0000;fill-opacity:1;fill-rule:nonzero;stroke:none"
         d="M 0,0 C 1.004,0 10.764,-0.003 12.745,-0.003 13.171,2.783 11.777,4.043 9.801,4.043 8.726,4.043 1.95,4.039 1.95,4.039 l 0.245,2.001 11.292,0 0.568,4.631 c 0,0 -12.292,0.004 -12.792,0 -0.41,-0.03 -3.286,-0.108 -4.265,-2.46 C -3.319,7.447 -3.601,4.709 -3.679,4.135 -4.131,0.796 -1.821,0 0,0" />
    </g>
  </g>
</svg>
