<svg class="logo__svg" width="119px" height="30px" viewBox="0 0 119 30" version="1.1" xmlns="http://www.w3.org/2000/svg" xmlns:xlink="http://www.w3.org/1999/xlink">
    <g id="Logo">
        <text id="CM-TRACKER" font-family="RobotoCondensed-Bold, Roboto Condensed" font-size="16" font-style="condensed" font-weight="bold" fill="#666666">
            <tspan class="inner" x="32" y="21">CM TRACKER</tspan>
        </text>
        <path class="inner" d="M15,26 L15,27.9103009" id="Line" stroke="#666666" stroke-width="2" stroke-linecap="round" stroke-linejoin="bevel"></path>
        <path class="inner" d="M15,2 L15,3.91030093" id="Line-Copy" stroke="#666666" stroke-width="2" stroke-linecap="round" stroke-linejoin="bevel"></path>
        <path class="inner" d="M3.91030093,15 L2,15" id="Line" stroke="#666666" stroke-width="2" stroke-linecap="round" stroke-linejoin="bevel"></path>
        <path class="inner" d="M27.9103009,15 L26,15" id="Line-Copy-2" stroke="#666666" stroke-width="2" stroke-linecap="round" stroke-linejoin="bevel"></path>
        <g id="football-badge-copy" transform="translate(4.000000, 4.000000)" fill="#666666">
            <g id="Capa_1">
                <g id="Group">
                    <path class="inner"
                        d="M11.1133745,21.9971757 C17.1941755,21.9971757 22.1236387,17.0730847 22.1236387,10.9989106 C22.1236387,4.92473655 17.1941755,0.000645550341 11.1133745,0.000645550341 C5.03257349,0.000645550341 0.103110293,4.92473655 0.103110293,10.9989106 C0.103110293,17.0730847 5.03257349,21.9971757 11.1133745,21.9971757 Z M11.1130845,20.6528405 C11.0812567,20.6528405 11.0505836,20.6482098 11.0190445,20.6482098 C10.9921244,20.6482098 10.9667199,20.6450261 10.9402328,20.6444473 C5.71065669,20.5508196 1.48347617,16.2640591 1.48347617,10.998983 C1.48347617,5.73390686 5.71058452,1.44721875 10.9402328,1.35351867 C10.9667199,1.35293983 10.9921244,1.34961148 11.0190445,1.34961148 C11.0505836,1.34903264 11.0812567,1.34498075 11.1130845,1.34498075 C16.4232044,1.34498075 20.7433423,5.676095 20.7433423,10.9996342 C20.7433423,16.3226669 16.4232044,20.6528405 11.1130845,20.6528405 L11.1130845,20.6528405 Z"
                        id="Shape"></path>
                    <path class="inner"
                        d="M11.037944,8.49372117 L11.0362806,8.49372117 C11.0100129,8.49372117 10.9861709,8.50081628 10.9605963,8.50137276 C9.62912089,8.54345648 8.5604613,9.63352921 8.5604613,10.9800692 C8.5604613,12.3267483 9.62905158,13.4169601 10.9605963,13.4584874 C10.9861709,13.4596003 11.0106367,13.4662781 11.0362806,13.4662781 L11.037944,13.4662781 C12.4060833,13.4662781 13.5148722,12.3534593 13.5148722,10.9799996 C13.5148722,9.60653998 12.4061526,8.49372117 11.037944,8.49372117 L11.037944,8.49372117 Z"
                        id="Shape"></path>
                    <path class="inner"
                        d="M11.1271434,2.517624 C11.0965785,2.517624 11.0671227,2.52207584 11.0368351,2.52207584 C11.0109832,2.52207584 10.9865868,2.52527559 10.9611508,2.52583207 C6.38918121,2.61598166 2.6958288,6.3695714 2.6958288,10.9795127 C2.6958288,15.5893149 6.38918121,19.3430438 10.9611508,19.4330542 C10.9865868,19.4336803 11.0109832,19.4370191 11.0368351,19.4370191 C11.0671227,19.4375756 11.0965785,19.4417492 11.1271434,19.4417492 C15.776322,19.4417492 19.5590124,15.6447541 19.5590124,10.9789562 C19.5590124,6.31288011 15.776322,2.517624 11.1271434,2.517624 L11.1271434,2.517624 Z M16.6728899,14.723225 C15.8252534,14.0514157 14.6064728,13.9922898 13.6877263,14.658256 C12.7686333,15.3247092 12.4422621,16.5066705 12.8130597,17.5252357 C12.2472988,17.6802846 11.6520819,17.7641738 11.0380133,17.7641738 L11.0363499,17.7641738 C11.0106367,17.7641738 10.9856858,17.7619479 10.9606656,17.7619479 C10.3392504,17.7544354 9.73800371,17.663312 9.1673912,17.4979682 C9.55315936,16.485246 9.24390719,15.2994589 8.33472524,14.6189547 C7.42623637,13.9382418 6.20703987,13.9800473 5.3499082,14.6389879 C4.71705713,13.6514465 4.33184343,12.4900749 4.28409024,11.2426577 C5.36356187,11.291767 6.38828021,10.6256616 6.74597864,9.54560554 C7.10360777,8.46652326 6.68221531,7.31753332 5.78952866,6.70742369 C6.53881712,5.78192961 7.52520815,5.05829828 8.65534391,4.62987904 C8.94255614,5.64913982 9.8605402,6.39843875 10.9595567,6.43287088 C10.9851313,6.43342736 11.0095277,6.43954863 11.0351024,6.43954863 L11.0369044,6.43954863 C12.1707135,6.43954863 13.1250149,5.6739727 13.4188807,4.62987904 C14.5868586,5.07269717 15.5994481,5.8304824 16.3571921,6.80000788 C15.4550796,7.39404918 15.0134492,8.53524842 15.3525731,9.62045196 C15.6919742,10.7064902 16.7057419,11.3906811 17.7859066,11.3600052 C17.7183313,12.5987969 17.3172461,13.7489694 16.6728899,14.723225 L16.6728899,14.723225 Z"
                        id="Shape"></path>
                </g>
            </g>
        </g>
    </g>
</svg>
